# xmcd
#
# Track frame offsets: 
#        150
#        18220
#        36214
#        51525
#        66561
#        84113
#        101390
#        116764
#        130639
#        151124
#        168179
#        182761
#        197156
#        210967
#        230527
#
# Disc length: 3313 seconds
#
# Revision: 0
# Processed by: cddbd v1.5.2PL0 Copyright (c) Steve Scherf et al.
# Submitted via: ExactAudioCopyFreeDBPlugin 1.0
#
DISCID=bd0cef0f
DTITLE=Various Artist - The Essential New Country CD1
DYEAR=2010
DGENRE=Country
TTITLE0=Kenny Chesney - I Go Back
TTITLE1=Sara Evans - A Real Fine Place To Start
TTITLE2=Montgomery Gentry - If You Ever Stop Loving Me
TTITLE3=Carrie Underwood - Before He Cheats
TTITLE4=Phil Vassar - Just Another Day In Paradise
TTITLE5=Carolyn Dawn Johnson - Simple Life
TTITLE6=BlackHawk - Goodbye Says It All
TTITLE7=Clint Black - A Better Man
TTITLE8=Joe Diffie - John Deere Greene
TTITLE9=Kellie Pickler - Best Days Of Our Life
TTITLE10=Rodney Crowell - She's Crazy For Leavin'
TTITLE11=The Lost Trailers - Holler Back
TTITLE12=Ricochet - Daddy's Money
TTITLE13=Jason Michael Carroll - Alyssa Lies
TTITLE14=Lonestar - Amazed
EXTD=
EXTT0=
EXTT1=
EXTT2=
EXTT3=
EXTT4=
EXTT5=
EXTT6=
EXTT7=
EXTT8=
EXTT9=
EXTT10=
EXTT11=
EXTT12=
EXTT13=
EXTT14=
PLAYORDER=
